<svg xmlns="http://www.w3.org/2000/svg" viewBox="0 0 1024 1024">
  <rect width="1024" height="1024" fill="#FFF9DA"/>
  <path d="M164 875V506C164 288 319 126 512 126s348 162 348 380v369Z" fill="#315B45"/>
  <path d="M236 858V528c0-170 121-300 276-300s276 130 276 300v330Z" fill="#E8F1E4"/>
  <path d="M155 876h714" fill="none" stroke="#2B2B26" stroke-width="26" stroke-linecap="round"/>
  <g transform="translate(215 330) scale(5.4)">
    <ellipse cx="55" cy="81" rx="38" ry="5" fill="#A8C9AC"/>
    <path d="M55 20C27 20 18 43 22 58c4 14 19 18 33 18s29-4 33-18c4-15-5-38-33-38Z" fill="#8A6F4D" stroke="#2B2B26" stroke-width="2.5"/>
    <path d="M55 16C31 16 20 41 24 56l4-4 4 6 6-8 6 8 6-8 6 8 6-8 6 8 6-8 6 8 6-6 4 4c4-15-11-40-35-40Z" fill="#5C4634" stroke="#2B2B26" stroke-width="2.5" stroke-linejoin="round"/>
    <ellipse cx="55" cy="62" rx="20" ry="13" fill="#F4E3C5" stroke="#2B2B26" stroke-width="2.5"/>
    <ellipse cx="42" cy="65" rx="4" ry="2.5" fill="#FFB173"/>
    <ellipse cx="68" cy="65" rx="4" ry="2.5" fill="#FFB173"/>
    <circle cx="47" cy="58" r="2.6" fill="#2B2B26"/><circle cx="48" cy="57" r="0.9" fill="#FFFFFF"/>
    <circle cx="63" cy="58" r="2.6" fill="#2B2B26"/><circle cx="64" cy="57" r="0.9" fill="#FFFFFF"/>
    <ellipse cx="55" cy="67" rx="3.6" ry="2.8" fill="#2B2B26"/>
    <path d="M46 71q9 6 18 0" stroke="#2B2B26" stroke-width="2.2" fill="none" stroke-linecap="round"/>
  </g>
  <path d="M239 866c-38-31-54-72-47-116 43 7 78 31 99 67-3-43 12-82 44-112 31 35 41 81 27 124" fill="#A8C9AC" stroke="#315B45" stroke-width="18" stroke-linejoin="round"/>
  <path d="M785 866c38-31 54-72 47-116-43 7-78 31-99 67 3-43-12-82-44-112-31 35-41 81-27 124" fill="#A8C9AC" stroke="#315B45" stroke-width="18" stroke-linejoin="round"/>
</svg>
